<?xml version="1.0" encoding="utf-8"?>
<svg id="master-artboard" viewBox="0 0 500 500" version="1.1" xmlns="http://www.w3.org/2000/svg" x="0px" y="0px" width="500px" height="500px" enable-background="new 0 0 1400 980"><rect id="ee-background" x="0" y="0" width="500" height="500" style="fill: white; fill-opacity: 0; pointer-events: none;"/>
<g transform="matrix(4.950000286102295, 0, 0, 4.950000286102295, -2977.223379553007, -226.01006381051354)"><g id="g-1" transform="matrix(1, 0, 0, 1, 0, 0)">
	<g id="g-2">
		<path class="st0" d="M652,46c27.6,0,50,22.4,50,50s-22.4,50-50,50s-50-22.4-50-50S624.4,46,652,46z" style="fill: rgb(47, 105, 141);"/>
	</g>
</g></g><g id="XMLID_98_" transform="matrix(1.176196575164795, 0, 0, 1.176196575164795, -386.0044970507374, -574.8739209180126)">
			<path fill="#B0A690" d="M633.5,852.2H446c-8.3,0-15-6.7-15-15V571.4c0-8.3,6.7-15,15-15h187.6c8.3,0,15,6.7,15,15v265.9&#10;&#9;&#9;&#9;&#9;C648.5,845.5,641.8,852.2,633.5,852.2z" style="fill: rgb(245, 245, 245);"/>
		</g><path d="M 456.399994 581.599976 H 623.199997 V 826.999969 H 456.399994 V 581.599976 Z" fill="#FFFFFF" transform="matrix(1.176196575164795, 0, 0, 1.176196575164795, -386.0044970507374, -574.8739209180126)" style="fill: rgb(47, 105, 141);"/><g id="XMLID_76_" transform="matrix(1.176196575164795, 0, 0, 1.176196575164795, -386.0044970507374, -574.8739209180126)">
				<path d="M 490.200012 645 H 506.600012 V 661.4 H 490.200012 V 645 Z" fill="#DAD7C5" style="fill: rgb(245, 245, 245);"/>
			</g><path d="M 517.799988 660.900024 H 589.399986 V 661.900024 H 517.799988 V 660.900024 Z" id="XMLID_203_" fill="#767769" transform="matrix(1.176196575164795, 0, 0, 1.176196575164795, -386.0044970507374, -574.8739209180126)" style="fill: rgb(245, 245, 245);"/><g id="XMLID_82_" transform="matrix(1.176196575164795, 0, 0, 1.176196575164795, -386.0044970507374, -574.8739209180126)">
				<path d="M 490.200012 678.200012 H 506.600012 V 694.600012 H 490.200012 V 678.200012 Z" fill="#DAD7C5" style="fill: rgb(245, 245, 245);"/>
			</g><path d="M 517.799988 694.099976 H 589.399986 V 695.099976 H 517.799988 V 694.099976 Z" id="XMLID_202_" fill="#767769" transform="matrix(1.176196575164795, 0, 0, 1.176196575164795, -386.0044970507374, -574.8739209180126)" style="fill: rgb(245, 245, 245);"/><g id="XMLID_85_" transform="matrix(1.176196575164795, 0, 0, 1.176196575164795, -386.0044970507374, -574.8739209180126)">
				<path d="M 490.200012 711.400024 H 506.600012 V 727.800024 H 490.200012 V 711.400024 Z" fill="#DAD7C5" style="fill: rgb(245, 245, 245);"/>
			</g><path d="M 517.799988 727.299988 H 589.399986 V 728.299988 H 517.799988 V 727.299988 Z" id="XMLID_201_" fill="#767769" transform="matrix(1.176196575164795, 0, 0, 1.176196575164795, -386.0044970507374, -574.8739209180126)" style="fill: rgb(245, 245, 245);"/><g id="XMLID_88_" transform="matrix(1.176196575164795, 0, 0, 1.176196575164795, -386.0044970507374, -574.8739209180126)">
				<path d="M 490.200012 744.700012 H 506.600012 V 761.100012 H 490.200012 V 744.700012 Z" fill="#DAD7C5" style="fill-opacity: 1; fill: rgb(245, 245, 245);"/>
			</g><path d="M 517.799988 760.599976 H 589.399986 V 761.599976 H 517.799988 V 760.599976 Z" id="XMLID_200_" fill="#767769" transform="matrix(1.176196575164795, 0, 0, 1.176196575164795, -386.0044970507374, -574.8739209180126)" style="fill: rgb(245, 245, 245);"/><path d="M 495.79998779296875 658.4000244140625 L 483.3999938964844 646.7999877929688 L 486.8999938964844 643.2000122070312 L 495.5 651.2000122070312 L 515.9000244140625 628.7999877929688 L 519.5999755859375 632.2000122070312 Z" id="XMLID_199_" fill="#9F2214" transform="matrix(1.176196575164795, 0, 0, 1.176196575164795, -386.0044970507374, -574.8739209180126)" style="fill: rgb(0, 0, 0);"/><path d="M 495.79998779296875 724.9000244140625 L 483.3999938964844 713.4000244140625 L 486.8999938964844 709.7000122070312 L 495.5 717.7999877929688 L 515.9000244140625 695.4000244140625 L 519.5999755859375 698.7000122070312 Z" id="XMLID_198_" fill="#9F2214" transform="matrix(1.176196575164795, 0, 0, 1.176196575164795, -386.0044970507374, -574.8739209180126)" style="fill: rgb(0, 0, 0);"/><path id="XMLID_195_" fill="#0A3542" d="M599.7,594.1H476c-4.4,0-8-3.6-8-8v-18c0-4.4,3.6-8,8-8h123.7c4.4,0,8,3.6,8,8v18&#10;&#9;&#9;&#9;&#9;C607.7,590.5,604.1,594.1,599.7,594.1z M476,563.1c-2.8,0-5,2.2-5,5v18c0,2.8,2.2,5,5,5h123.7c2.8,0,5-2.2,5-5v-18&#10;&#9;&#9;&#9;&#9;c0-2.8-2.2-5-5-5H476z" transform="matrix(1.176196575164795, 0, 0, 1.176196575164795, -386.0044970507374, -574.8739209180126)" style="fill: rgb(0, 0, 0);"/><g id="XMLID_57_" transform="matrix(1.176196575164795, 0, 0, 1.176196575164795, -386.0044970507374, -574.8739209180126)">
				<path fill="#DAD7C5" d="M507.6,570.5h-18.4c-5.2,0-9.5-4.3-9.5-9.5v-1.7c0-5.2,4.3-9.5,9.5-9.5h18.4c5.2,0,9.5,4.3,9.5,9.5v1.7&#10;&#9;&#9;&#9;&#9;&#9;C517.1,566.2,512.9,570.5,507.6,570.5z" style="fill: rgb(0, 0, 0);"/>
			</g><path fill="#DAD7C5" d="M590.3,570.5h-18.4c-5.2,0-9.5-4.3-9.5-9.5v-1.7c0-5.2,4.3-9.5,9.5-9.5h18.4c5.2,0,9.5,4.3,9.5,9.5v1.7&#10;&#9;&#9;&#9;&#9;&#9;C599.8,566.2,595.5,570.5,590.3,570.5z" transform="matrix(1.176196575164795, 0, 0, 1.176196575164795, -386.0044970507374, -574.8739209180126)" style="fill: rgb(0, 0, 0);"/>
</svg>