<?xml version="1.0" encoding="utf-8"?>
<svg id="master-artboard" viewBox="0 0 753.0323486328125 753.0324096679688" version="1.1" xmlns="http://www.w3.org/2000/svg" x="0px" y="0px" width="753.0323486328125px" height="753.0324096679688px" style="enable-background:new 0 0 1000 1000;"><defs><linearGradient id="gradient-0" gradientUnits="userSpaceOnUse" x1="533.5029296875" y1="512.7999877929688" x2="533.5029296875" y2="517.9999389648438">
                <stop offset="0" style="stop-color: #2b3038"/>
                <stop offset="1" style="stop-color: #000000"/>
              </linearGradient><linearGradient id="gradient-1" gradientUnits="userSpaceOnUse" x1="549.4029235839844" y1="512.7999877929688" x2="549.4029235839844" y2="517.9999389648438">
                <stop offset="0" style="stop-color: #2b3038"/>
                <stop offset="1" style="stop-color: #000000"/>
              </linearGradient><linearGradient id="gradient-2" gradientUnits="userSpaceOnUse" x1="565.3029174804688" y1="512.7999877929688" x2="565.3029174804688" y2="517.9999389648438">
                <stop offset="0" style="stop-color: #2b3038"/>
                <stop offset="1" style="stop-color: #000000"/>
              </linearGradient><linearGradient id="gradient-3" gradientUnits="userSpaceOnUse" x1="623.0999755859375" y1="549.7999877929688" x2="623.0999755859375" y2="583.4000854492188">
                <stop offset="0" style="stop-color: #2b3038"/>
                <stop offset="1" style="stop-color: #000000"/>
              </linearGradient><linearGradient id="gradient-4" gradientUnits="userSpaceOnUse" x1="604.6124877929688" y1="500.6999816894531" x2="604.6124877929688" y2="635.6000366210938">
                <stop offset="0" style="stop-color: #2b3038"/>
                <stop offset="1" style="stop-color: #000000"/>
              </linearGradient></defs><rect id="ee-background" x="0" y="0" width="753.0323486328125" height="753.0324096679688" style="fill: white; fill-opacity: 0; pointer-events: none;"/>

<g transform="matrix(7.394835948944092, 0, 0, 7.394835948944092, -4472.2919921875, -451.5244245529175)"><g id="g-1" transform="matrix(1.0142213008098007, 0, 0, 1.0142213106155396, -8.6037949820018, -0.8712965846061707)">
	<g id="g-2" transform="matrix(0.9999999999999999, 0, 0, 0.9999999999999999, 2.993547024541442, 15.267089852426064)">
		<path class="st0" d="M652,46c27.6,0,50,22.4,50,50s-22.4,50-50,50s-50-22.4-50-50S624.4,46,652,46z" style="fill: rgb(47, 105, 141); stroke: rgb(0, 0, 0); stroke-width: 0;"/>
	<path d="M 641.845458984375 54.66341018676758 L 641.845458984375 54.66341018676758 L 654.0192260742188 84.19973754882812" style="fill: rgb(22, 52, 71); fill-opacity: 1; stroke: rgb(0, 0, 0); stroke-opacity: 1; stroke-width: 0; paint-order: stroke;"/></g>
</g></g><g transform="matrix(0.952431857585907, 0, 0, 0.952431857585907, -93.25666046142567, -78.26244874062886)">
		<g transform="matrix(3.19585919380188, 0, 0, 3.19585919380188, -1438.405332984878, -1321.3195141804765)">
			
			
			<g>
				<path style="fill: rgb(255, 255, 255); fill-opacity: 1; stroke: rgb(47, 105, 141); stroke-width: 0; paint-order: fill;" d="M536.5,512.8h-6c-1.5,0-2.6,1.2-2.6,2.6c0,1.5,1.2,2.6,2.6,2.6h6c1.5,0,2.6-1.2,2.6-2.6&#10;&#9;&#9;&#9;&#9;&#9;C539.2,514,538,512.8,536.5,512.8z"/>
				<path style="fill: rgb(255, 255, 255); fill-opacity: 1; stroke: rgb(47, 105, 141); stroke-width: 0; paint-order: fill;" d="M552.4,512.8h-6c-1.5,0-2.6,1.2-2.6,2.6c0,1.5,1.2,2.6,2.6,2.6h6c1.5,0,2.6-1.2,2.6-2.6&#10;&#9;&#9;&#9;&#9;&#9;C555.1,514,553.9,512.8,552.4,512.8z"/>
				<path style="fill: rgb(255, 255, 255); fill-opacity: 1; stroke: rgb(47, 105, 141); stroke-width: 0; paint-order: fill;" d="M568.3,512.8h-6c-1.5,0-2.6,1.2-2.6,2.6c0,1.5,1.2,2.6,2.6,2.6h6c1.5,0,2.6-1.2,2.6-2.6&#10;&#9;&#9;&#9;&#9;&#9;C571,514,569.8,512.8,568.3,512.8z"/>
				<path style="fill: rgb(255, 255, 255); fill-opacity: 1; stroke: rgb(47, 105, 141); stroke-width: 0; paint-order: fill;" d="M635,554.7c-3.2-3.2-7.4-4.9-11.9-4.9c-4.5,0-8.7,1.7-11.9,4.9c-3.2,3.2-4.9,7.4-4.9,11.9&#10;&#9;&#9;&#9;&#9;&#9;c0,4.5,1.7,8.7,4.9,11.9c3.2,3.2,7.4,4.9,11.9,4.9c4.5,0,8.7-1.7,11.9-4.9c3.2-3.2,4.9-7.4,4.9-11.9&#10;&#9;&#9;&#9;&#9;&#9;C639.9,562,638.1,557.8,635,554.7z M631.2,574.7c-2.2,2.2-5.1,3.4-8.1,3.4c-3.1,0-6-1.2-8.1-3.4s-3.4-5.1-3.4-8.1&#10;&#9;&#9;&#9;&#9;&#9;c0-3.1,1.2-6,3.4-8.1s5.1-3.4,8.1-3.4c3.1,0,6,1.2,8.1,3.4s3.4,5.1,3.4,8.1C634.6,569.6,633.4,572.5,631.2,574.7z"/>
				<path style="fill: rgb(255, 255, 255); fill-opacity: 1; stroke: rgb(47, 105, 141); stroke-width: 0; paint-order: fill;" d="M690.3,618.5l-8.3-8.3c0.5-0.5,0.9-1.2,0.9-2v-80.7v-24.2c0-1.5-1.2-2.6-2.6-2.6H518.6&#10;&#9;&#9;&#9;&#9;&#9;c-1.5,0-2.6,1.2-2.6,2.6v24.2v80.7c0,1.5,1.2,2.6,2.6,2.6h135.6l21.9,21.9c1.9,1.9,4.4,2.9,7.1,2.9c2.7,0,5.2-1,7.1-2.9&#10;&#9;&#9;&#9;&#9;&#9;C694.2,628.8,694.2,622.4,690.3,618.5z M521.2,506h156.4v18.9H521.2V506z M521.2,605.6v-75.5h156.4v75.5h-0.2l-17.1-17.1&#10;&#9;&#9;&#9;&#9;&#9;c-1.7-1.7-3.8-2.7-6.2-2.9c-0.1-0.3-0.3-0.6-0.6-0.9l-6.7-6.7c4.7-9.8,3-21.9-5.1-30c-5-5-11.6-7.7-18.6-7.7&#10;&#9;&#9;&#9;&#9;&#9;c-7,0-13.6,2.7-18.6,7.7c-10.3,10.3-10.3,26.9,0,37.2c5,5,11.6,7.7,18.6,7.7c4.6,0,8.9-1.2,12.8-3.3l6.4,6.4&#10;&#9;&#9;&#9;&#9;&#9;c0.2,0.2,0.5,0.4,0.9,0.6c0.2,2.3,1.2,4.4,2.9,6.2l2.9,2.9H521.2z M646.1,588.4C646,588.4,646,588.4,646.1,588.4l-1.9,1.9&#10;&#9;&#9;&#9;&#9;&#9;l-3.9-3.9c0.5-0.4,1-0.9,1.4-1.3c0.8-0.8,1.6-1.7,2.2-2.6l4,4L646.1,588.4C646.1,588.4,646.1,588.4,646.1,588.4z M623.1,587.6&#10;&#9;&#9;&#9;&#9;&#9;c-5.6,0-10.9-2.2-14.9-6.2c-8.2-8.2-8.2-21.5,0-29.8c4-4,9.3-6.2,14.9-6.2c5.6,0,10.9,2.2,14.9,6.2c7.2,7.2,8.1,18.2,2.7,26.4&#10;&#9;&#9;&#9;&#9;&#9;l-6.1,6.1C631.2,586.4,627.3,587.6,623.1,587.6z M686.6,629c-0.9,0.9-2.1,1.4-3.4,1.4c-1.3,0-2.5-0.5-3.4-1.4l-30.1-30.1&#10;&#9;&#9;&#9;&#9;&#9;c-1.9-1.9-1.9-4.9,0-6.8l0,0c0.9-0.9,2.1-1.4,3.4-1.4c1.3,0,2.5,0.5,3.4,1.4l30.1,30.1C688.5,624.1,688.5,627.1,686.6,629z"/>
			</g>
			
			
			
			
			
			
			
			
			
		</g>
		
	</g>
</svg>